HIERARCHY
ROOT Hips
{
	OFFSET -406.556305 -580.994690 89.017906
	CHANNELS 6 Xposition Yposition Zposition Zrotation Yrotation Xrotation
	JOINT Spine
	{
		OFFSET 0.000000 2.080078 8.814247
		CHANNELS 6 Xposition Yposition Zposition Zrotation Yrotation Xrotation
		JOINT Spine1
		{
			OFFSET 0.000000 0.000000 8.844139
			CHANNELS 6 Xposition Yposition Zposition Zrotation Yrotation Xrotation
			JOINT Spine2
			{
				OFFSET 0.000000 0.000000 11.682266
				CHANNELS 6 Xposition Yposition Zposition Zrotation Yrotation Xrotation
				JOINT Spine3
				{
					OFFSET 0.000000 0.000000 11.746696
					CHANNELS 6 Xposition Yposition Zposition Zrotation Yrotation Xrotation
					JOINT Neck
					{
						OFFSET 0.000000 0.000000 17.658264
						CHANNELS 6 Xposition Yposition Zposition Zrotation Yrotation Xrotation
						JOINT Neck1
						{
							OFFSET 0.000000 0.000000 5.101517
							CHANNELS 6 Xposition Yposition Zposition Zrotation Yrotation Xrotation
							JOINT Head
							{
								OFFSET 0.000000 0.000000 5.101517
								CHANNELS 6 Xposition Yposition Zposition Zrotation Yrotation Xrotation
								JOINT HeadEnd
								{
									OFFSET 0.000000 0.000000 11.655090
									CHANNELS 6 Xposition Yposition Zposition Zrotation Yrotation Xrotation
									End Site
									{
										OFFSET 0.000000 0.000000 0.100006
									}
								}
							}
						}
					}
					JOINT RightShoulder
					{
						OFFSET -2.625397 0.000000 11.175217
						CHANNELS 6 Xposition Yposition Zposition Zrotation Yrotation Xrotation
						JOINT RightArm
						{
							OFFSET 0.000000 0.000000 10.434723
							CHANNELS 6 Xposition Yposition Zposition Zrotation Yrotation Xrotation
							JOINT RightForeArm
							{
								OFFSET 0.000000 0.000000 29.628418
								CHANNELS 6 Xposition Yposition Zposition Zrotation Yrotation Xrotation
								JOINT RightHand
								{
									OFFSET 0.000000 0.000000 22.857605
									CHANNELS 6 Xposition Yposition Zposition Zrotation Yrotation Xrotation
									JOINT RightHandThumb1
									{
										OFFSET -2.867310 -2.944275 3.959564
										CHANNELS 6 Xposition Yposition Zposition Zrotation Yrotation Xrotation
										JOINT RightHandThumb2
										{
											OFFSET 0.000000 0.000000 3.350403
											CHANNELS 6 Xposition Yposition Zposition Zrotation Yrotation Xrotation
											JOINT RightHandThumb3
											{
												OFFSET 0.000000 0.000000 3.756516
												CHANNELS 6 Xposition Yposition Zposition Zrotation Yrotation Xrotation
												JOINT RightHandThumb4
												{
													OFFSET 0.000000 0.000000 3.147339
													CHANNELS 6 Xposition Yposition Zposition Zrotation Yrotation Xrotation
													End Site
													{
														OFFSET 0.000000 0.000000 0.100006
													}
												}
											}
										}
									}
									JOINT RightHandIndex1
									{
										OFFSET -0.086761 -2.345276 10.030899
										CHANNELS 6 Xposition Yposition Zposition Zrotation Yrotation Xrotation
										JOINT RightHandIndex2
										{
											OFFSET 0.000000 0.000000 4.061096
											CHANNELS 6 Xposition Yposition Zposition Zrotation Yrotation Xrotation
											JOINT RightHandIndex3
											{
												OFFSET 0.000000 0.000000 3.248871
												CHANNELS 6 Xposition Yposition Zposition Zrotation Yrotation Xrotation
												JOINT RightHandIndex4
												{
													OFFSET 0.000000 0.000000 2.639709
													CHANNELS 6 Xposition Yposition Zposition Zrotation Yrotation Xrotation
													End Site
													{
														OFFSET 0.000000 0.000000 0.100006
													}
												}
											}
										}
									}
									JOINT RightHandMiddle1
									{
										OFFSET 0.104095 -0.006775 9.502945
										CHANNELS 6 Xposition Yposition Zposition Zrotation Yrotation Xrotation
										JOINT RightHandMiddle2
										{
											OFFSET 0.000000 0.000000 4.568726
											CHANNELS 6 Xposition Yposition Zposition Zrotation Yrotation Xrotation
											JOINT RightHandMiddle3
											{
												OFFSET 0.000000 0.000000 3.654984
												CHANNELS 6 Xposition Yposition Zposition Zrotation Yrotation Xrotation
												JOINT RightHandMiddle4
												{
													OFFSET 0.000000 0.000000 2.741241
													CHANNELS 6 Xposition Yposition Zposition Zrotation Yrotation Xrotation
													End Site
													{
														OFFSET 0.000000 0.000000 0.100006
													}
												}
											}
										}
									}
									JOINT RightHandRing1
									{
										OFFSET 0.086761 2.267456 8.921707
										CHANNELS 6 Xposition Yposition Zposition Zrotation Yrotation Xrotation
										JOINT RightHandRing2
										{
											OFFSET 0.000000 0.000000 4.061096
											CHANNELS 6 Xposition Yposition Zposition Zrotation Yrotation Xrotation
											JOINT RightHandRing3
											{
												OFFSET 0.000000 0.000000 3.654984
												CHANNELS 6 Xposition Yposition Zposition Zrotation Yrotation Xrotation
												JOINT RightHandRing4
												{
													OFFSET 0.000000 0.000000 2.741241
													CHANNELS 6 Xposition Yposition Zposition Zrotation Yrotation Xrotation
													End Site
													{
														OFFSET 0.000000 0.000000 0.100006
													}
												}
											}
										}
									}
									JOINT RightHandPinky1
									{
										OFFSET -0.173492 4.467224 7.976990
										CHANNELS 6 Xposition Yposition Zposition Zrotation Yrotation Xrotation
										JOINT RightHandPinky2
										{
											OFFSET 0.000000 0.000000 3.350403
											CHANNELS 6 Xposition Yposition Zposition Zrotation Yrotation Xrotation
											JOINT RightHandPinky3
											{
												OFFSET 0.000000 0.000000 2.842758
												CHANNELS 6 Xposition Yposition Zposition Zrotation Yrotation Xrotation
												JOINT RightHandPinky4
												{
													OFFSET 0.000000 0.000000 2.639709
													CHANNELS 6 Xposition Yposition Zposition Zrotation Yrotation Xrotation
													End Site
													{
														OFFSET 0.000000 0.000000 0.100006
													}
												}
											}
										}
									}
									JOINT RightForeArmEnd
									{
										OFFSET 0.000000 0.000000 0.000000
										CHANNELS 6 Xposition Yposition Zposition Zrotation Yrotation Xrotation
										End Site
										{
											OFFSET 0.000000 0.000000 0.100006
										}
									}
								}
								JOINT RightArmEnd
								{
									OFFSET 0.000000 0.000000 0.000000
									CHANNELS 6 Xposition Yposition Zposition Zrotation Yrotation Xrotation
									End Site
									{
										OFFSET 0.000000 0.000000 0.100006
									}
								}
							}
						}
					}
					JOINT LeftShoulder
					{
						OFFSET 2.625397 0.000000 11.175217
						CHANNELS 6 Xposition Yposition Zposition Zrotation Yrotation Xrotation
						JOINT LeftArm
						{
							OFFSET 0.000000 0.000000 10.813629
							CHANNELS 6 Xposition Yposition Zposition Zrotation Yrotation Xrotation
							JOINT LeftForeArm
							{
								OFFSET 0.000000 0.000000 28.724777
								CHANNELS 6 Xposition Yposition Zposition Zrotation Yrotation Xrotation
								JOINT LeftHand
								{
									OFFSET 0.644379 0.328857 25.716171
									CHANNELS 6 Xposition Yposition Zposition Zrotation Yrotation Xrotation
									JOINT LeftHandThumb1
									{
										OFFSET 2.867310 -2.944275 3.959564
										CHANNELS 6 Xposition Yposition Zposition Zrotation Yrotation Xrotation
										JOINT LeftHandThumb2
										{
											OFFSET 0.000000 0.000000 3.350403
											CHANNELS 6 Xposition Yposition Zposition Zrotation Yrotation Xrotation
											JOINT LeftHandThumb3
											{
												OFFSET 0.000000 0.000000 3.756516
												CHANNELS 6 Xposition Yposition Zposition Zrotation Yrotation Xrotation
												JOINT LeftHandThumb4
												{
													OFFSET 0.000000 0.000000 3.100006
													CHANNELS 6 Xposition Yposition Zposition Zrotation Yrotation Xrotation
													End Site
													{
														OFFSET 0.000000 0.000000 0.100006
													}
												}
											}
										}
									}
									JOINT LeftHandIndex1
									{
										OFFSET 0.086761 -2.345276 10.030899
										CHANNELS 6 Xposition Yposition Zposition Zrotation Yrotation Xrotation
										JOINT LeftHandIndex2
										{
											OFFSET 0.000000 0.000000 4.061096
											CHANNELS 6 Xposition Yposition Zposition Zrotation Yrotation Xrotation
											JOINT LeftHandIndex3
											{
												OFFSET 0.000000 0.000000 3.248871
												CHANNELS 6 Xposition Yposition Zposition Zrotation Yrotation Xrotation
												JOINT LeftHandIndex4
												{
													OFFSET 0.000000 0.000000 2.639709
													CHANNELS 6 Xposition Yposition Zposition Zrotation Yrotation Xrotation
													End Site
													{
														OFFSET 0.000000 0.000000 0.100006
													}
												}
											}
										}
									}
									JOINT LeftHandMiddle1
									{
										OFFSET -0.104095 -0.006775 9.502945
										CHANNELS 6 Xposition Yposition Zposition Zrotation Yrotation Xrotation
										JOINT LeftHandMiddle2
										{
											OFFSET 0.000000 0.000000 4.568726
											CHANNELS 6 Xposition Yposition Zposition Zrotation Yrotation Xrotation
											JOINT LeftHandMiddle3
											{
												OFFSET 0.000000 0.000000 3.654984
												CHANNELS 6 Xposition Yposition Zposition Zrotation Yrotation Xrotation
												JOINT LeftHandMiddle4
												{
													OFFSET 0.000000 0.000000 2.741241
													CHANNELS 6 Xposition Yposition Zposition Zrotation Yrotation Xrotation
													End Site
													{
														OFFSET 0.000000 0.000000 0.100006
													}
												}
											}
										}
									}
									JOINT LeftHandRing1
									{
										OFFSET -0.086761 2.267456 8.921707
										CHANNELS 6 Xposition Yposition Zposition Zrotation Yrotation Xrotation
										JOINT LeftHandRing2
										{
											OFFSET 0.000000 0.000000 4.061096
											CHANNELS 6 Xposition Yposition Zposition Zrotation Yrotation Xrotation
											JOINT LeftHandRing3
											{
												OFFSET 0.000000 0.000000 3.654984
												CHANNELS 6 Xposition Yposition Zposition Zrotation Yrotation Xrotation
												JOINT LeftHandRing4
												{
													OFFSET 0.000000 0.000000 2.741241
													CHANNELS 6 Xposition Yposition Zposition Zrotation Yrotation Xrotation
													End Site
													{
														OFFSET 0.000000 0.000000 0.100006
													}
												}
											}
										}
									}
									JOINT LeftHandPinky1
									{
										OFFSET 0.173492 4.467224 7.976990
										CHANNELS 6 Xposition Yposition Zposition Zrotation Yrotation Xrotation
										JOINT LeftHandPinky2
										{
											OFFSET 0.000000 0.000000 3.350403
											CHANNELS 6 Xposition Yposition Zposition Zrotation Yrotation Xrotation
											JOINT LeftHandPinky3
											{
												OFFSET 0.000000 0.000000 2.842758
												CHANNELS 6 Xposition Yposition Zposition Zrotation Yrotation Xrotation
												JOINT LeftHandPinky4
												{
													OFFSET 0.000000 0.000000 2.639709
													CHANNELS 6 Xposition Yposition Zposition Zrotation Yrotation Xrotation
													End Site
													{
														OFFSET 0.000000 0.000000 0.100006
													}
												}
											}
										}
									}
									JOINT LeftForeArmEnd
									{
										OFFSET 0.000000 0.000000 0.000000
										CHANNELS 6 Xposition Yposition Zposition Zrotation Yrotation Xrotation
										End Site
										{
											OFFSET 0.000000 0.000000 0.100006
										}
									}
								}
								JOINT LeftArmEnd
								{
									OFFSET 0.000000 0.000000 0.000000
									CHANNELS 6 Xposition Yposition Zposition Zrotation Yrotation Xrotation
									End Site
									{
										OFFSET 0.000000 0.000000 0.100006
									}
								}
							}
						}
					}
				}
			}
		}
	}
	JOINT RightUpLeg
	{
		OFFSET -11.289948 0.000000 0.000000
		CHANNELS 6 Xposition Yposition Zposition Zrotation Yrotation Xrotation
		JOINT RightLeg
		{
			OFFSET 0.000000 0.000000 -38.200329
			CHANNELS 6 Xposition Yposition Zposition Zrotation Yrotation Xrotation
			JOINT RightFoot
			{
				OFFSET 0.000000 0.000000 -39.900856
				CHANNELS 6 Xposition Yposition Zposition Zrotation Yrotation Xrotation
				JOINT RightToeBase
				{
					OFFSET 0.000000 -15.261658 0.000001
					CHANNELS 6 Xposition Yposition Zposition Zrotation Yrotation Xrotation
					JOINT RightToeBaseEnd
					{
						OFFSET 0.000000 -7.370728 0.000001
						CHANNELS 6 Xposition Yposition Zposition Zrotation Yrotation Xrotation
						End Site
						{
							OFFSET 0.000000 0.000000 0.100000
						}
					}
				}
				JOINT RightLegEnd
				{
					OFFSET 0.000000 0.000000 0.000000
					CHANNELS 6 Xposition Yposition Zposition Zrotation Yrotation Xrotation
					End Site
					{
						OFFSET 0.000000 0.000000 0.100000
					}
				}
			}
			JOINT RightUpLegEnd
			{
				OFFSET 0.000000 0.000000 0.000000
				CHANNELS 6 Xposition Yposition Zposition Zrotation Yrotation Xrotation
				End Site
				{
					OFFSET 0.000000 0.000000 0.099998
				}
			}
		}
	}
	JOINT LeftUpLeg
	{
		OFFSET 11.315674 0.000000 0.000000
		CHANNELS 6 Xposition Yposition Zposition Zrotation Yrotation Xrotation
		JOINT LeftLeg
		{
			OFFSET 0.000000 0.000000 -38.200329
			CHANNELS 6 Xposition Yposition Zposition Zrotation Yrotation Xrotation
			JOINT LeftFoot
			{
				OFFSET 0.000000 0.000000 -39.900856
				CHANNELS 6 Xposition Yposition Zposition Zrotation Yrotation Xrotation
				JOINT LeftToeBase
				{
					OFFSET 0.000000 -15.261658 0.000001
					CHANNELS 6 Xposition Yposition Zposition Zrotation Yrotation Xrotation
					JOINT LeftToeBaseEnd
					{
						OFFSET 0.000000 -7.539978 0.000001
						CHANNELS 6 Xposition Yposition Zposition Zrotation Yrotation Xrotation
						End Site
						{
							OFFSET 0.000000 0.000000 0.100000
						}
					}
				}
				JOINT LeftLegEnd
				{
					OFFSET 0.000000 0.000000 0.000000
					CHANNELS 6 Xposition Yposition Zposition Zrotation Yrotation Xrotation
					End Site
					{
						OFFSET 0.000000 0.000000 0.100000
					}
				}
			}
			JOINT LeftUpLegEnd
			{
				OFFSET 0.000000 0.000000 0.000000
				CHANNELS 6 Xposition Yposition Zposition Zrotation Yrotation Xrotation
				End Site
				{
					OFFSET 0.000000 0.000000 0.099998
				}
			}
		}
	}
}
MOTION
Frames: 2
Frame Time: 0.016667
-0.499786 -2.636353 82.303604 4.169216 0.674814 -10.022178 0.000013 2.080065 8.814253 0.339969 -1.970209 17.476345 0.000006 -0.000026 8.844131 0.296190 -0.056390 10.830434 0.000010 0.000026 11.682274 0.245078 1.315683 13.905393 -0.000030 -0.000081 11.746705 0.555028 1.837438 8.411340 -0.000002 0.000005 17.658287 -0.999457 -2.147296 5.006341 -0.000014 0.000013 5.101546 -0.509251 -0.641542 -1.486035 -0.000010 -0.000004 5.101563 -1.234870 0.107385 -13.449005 0.000002 0.000002 11.655100 0.000000 -0.000000 0.000004 -2.625427 -0.000008 11.175203 21.083628 -71.575355 1.443361 0.000000 0.000000 10.434708 -66.033299 -45.661181 92.098469 0.000004 -0.000015 29.628422 14.339125 -0.523758 26.467516 -0.000032 0.000031 22.857607 10.973845 2.524793 -3.339559 -2.867256 -2.944321 3.959496 31.555491 -17.972589 50.443700 -0.000008 -0.000046 3.350426 -14.241558 9.015979 -25.486340 -0.000019 -0.000061 3.756542 -9.455327 6.949768 -17.426488 -0.000019 -0.000020 3.147342 0.000003 -0.000000 -0.000000 -0.086800 -2.345263 10.030884 -12.588018 -18.959866 5.550397 -0.000028 -0.000029 4.061087 0.272219 -13.776882 1.980607 -0.000010 0.000012 3.248875 -0.226784 -13.776860 1.979451 -0.000000 -0.000016 2.639716 0.000001 0.000000 0.000002 0.104019 -0.006750 9.502930 -7.088737 -18.381711 3.663212 -0.000026 -0.000065 4.568758 0.417875 -13.188586 0.698226 -0.000048 -0.000047 3.655006 -0.098850 -13.188576 0.704263 0.000006 0.000002 2.741241 -0.000001 0.000001 0.000002 0.086775 2.267468 8.921703 1.088985 -20.267724 1.530647 -0.000005 -0.000018 4.061113 -0.895416 -14.257138 -0.887883 -0.000007 -0.000005 3.654997 0.108887 -14.257044 -0.891486 -0.000013 -0.000014 2.741248 0.000002 0.000001 0.000000 -0.173485 4.467193 7.976980 10.127161 -20.283536 -2.496561 -0.000032 -0.000010 3.350410 -1.659115 -14.169654 -2.806225 -0.000028 0.000018 2.842739 0.340630 -14.169742 -2.806356 -0.000025 -0.000023 2.639734 0.000001 0.000003 0.000001 0.000006 0.000013 -0.000031 -0.000002 0.000000 0.000000 0.000011 -0.000011 0.000009 0.000001 0.000000 0.000001 2.625412 -0.000008 11.175251 -20.819381 67.217948 0.077229 0.000015 -0.000004 10.813635 45.373800 66.169937 63.856101 0.000027 -0.000031 28.724709 -15.008388 1.243789 101.380737 0.644333 0.328865 25.716139 33.538227 -52.605769 0.607167 2.867279 -2.944275 3.959579 -33.066909 11.900315 60.484173 -0.000032 0.000012 3.350420 1.191963 -1.143589 -2.371629 0.000003 -0.000028 3.756510 0.822673 -0.799411 -1.643703 -0.000000 -0.000002 3.100005 0.000000 0.000000 0.000000 0.086760 -2.345299 10.030884 -15.000741 -27.931850 29.619040 -0.000005 -0.000014 4.061133 0.639044 0.068771 0.000814 -0.000045 -0.000018 3.248874 0.131307 -0.038176 0.001665 -0.000034 0.000001 2.639712 0.000001 -0.000000 0.000001 -0.104126 -0.006798 9.502945 -9.744523 -29.225857 19.798929 -0.000012 0.000017 4.568733 0.552348 0.000813 -0.000368 -0.000040 0.000005 3.654989 0.084728 0.000001 0.000133 -0.000037 -0.000027 2.741261 0.000002 -0.000002 -0.000001 -0.086771 2.267466 8.921715 -0.233290 -28.144127 6.249205 0.000011 -0.000016 4.061100 -1.112271 0.000169 0.000091 0.000005 -0.000020 3.654976 -0.163932 0.000000 -0.000042 -0.000046 -0.000016 2.741257 0.000001 -0.000002 0.000003 0.173439 4.467249 7.976963 9.740459 -22.630857 -5.911725 0.000019 -0.000088 3.350422 -2.021723 0.000007 -0.000194 -0.000029 -0.000077 2.842801 -0.112421 -0.000008 0.000479 -0.000032 0.000005 2.639723 0.000000 -0.000002 -0.000001 -0.000018 0.000005 -0.000007 0.000000 0.000003 -0.000002 -0.000022 0.000004 -0.000004 -0.000001 0.000006 0.000000 -11.289980 -0.000015 0.000019 -12.149465 7.117267 -14.410659 -0.000027 -0.000068 -38.200363 -0.617619 0.598955 43.950259 -0.000018 -0.000008 -39.900860 -6.984895 -1.103156 3.541697 -0.000011 -15.261734 0.000030 2.316934 -0.214975 -13.486593 -0.000015 -7.370802 -0.000000 0.000002 0.000001 -0.000000 -0.000004 -0.000017 -0.000003 0.000002 -0.000000 -0.000000 -0.000004 -0.000045 0.000001 -0.000002 -0.000000 -0.000001 11.315681 -0.000052 -0.000004 2.151722 -7.605303 -12.581401 -0.000020 -0.000053 -38.200356 0.241580 -0.237929 44.570126 0.000024 -0.000059 -39.900856 10.129126 4.391938 1.969220 -0.000008 -15.261631 0.000004 -1.745162 0.076682 -15.884025 -0.000009 -7.540040 0.000001 0.000000 0.000000 -0.000001 -0.000002 0.000007 0.000001 -0.000001 0.000001 -0.000001 0.000000 0.000003 0.000006 -0.000001 -0.000000 -0.000000 
-0.537964 -2.648254 82.302696 4.117837 0.685283 -10.034493 -0.000001 2.080071 8.814234 0.333416 -1.968804 17.476012 0.000012 -0.000019 8.844139 0.296975 -0.055762 10.829559 -0.000001 -0.000010 11.682262 0.257507 1.302154 13.924530 0.000005 -0.000004 11.746669 0.554238 1.817349 8.442328 0.000016 0.000003 17.658268 -1.022330 -2.130665 4.972986 0.000007 -0.000002 5.101508 -0.566255 -0.618348 -1.538725 -0.000003 0.000006 5.101567 -1.236831 0.108708 -13.441314 -0.000001 -0.000008 11.655088 0.000000 0.000000 0.000000 -2.625404 -0.000031 11.175192 21.056742 -71.554496 1.440995 -0.000053 0.000000 10.434678 -66.037561 -45.730674 92.058608 -0.000002 0.000008 29.628456 14.314722 -0.524097 26.735225 0.000001 0.000029 22.857542 11.118870 2.551568 -3.302807 -2.867306 -2.944351 3.959526 31.555501 -17.972594 50.443689 -0.000031 -0.000038 3.350479 -14.241548 9.015977 -25.486335 -0.000019 -0.000034 3.756542 -9.455329 6.949764 -17.426490 -0.000030 0.000017 3.147339 -0.000002 0.000001 0.000003 -0.086784 -2.345263 10.030903 -12.589984 -18.991119 5.595636 -0.000043 -0.000014 4.061111 0.273147 -13.803230 1.980868 -0.000030 -0.000005 3.248852 -0.226769 -13.803250 1.980344 -0.000024 -0.000004 2.639701 0.000002 -0.000001 0.000005 0.104042 -0.006767 9.502953 -7.092055 -18.410360 3.717896 -0.000042 -0.000045 4.568732 0.418086 -13.211217 0.697461 -0.000025 -0.000076 3.655015 -0.098830 -13.211205 0.704428 -0.000016 0.000003 2.741246 0.000000 -0.000001 0.000000 0.086767 2.267461 8.921741 1.088243 -20.286372 1.590569 0.000016 -0.000021 4.061091 -0.895727 -14.266894 -0.886854 -0.000002 0.000003 3.654983 0.108807 -14.266926 -0.890808 -0.000005 0.000007 2.741263 -0.000001 0.000000 -0.000001 -0.173508 4.467168 7.977005 10.126265 -20.292378 -2.419914 -0.000042 0.000028 3.350416 -1.659423 -14.163698 -2.807016 -0.000042 0.000017 2.842764 0.340383 -14.163753 -2.806677 -0.000004 0.000018 2.639710 -0.000001 -0.000000 0.000001 0.000007 -0.000005 -0.000010 0.000001 -0.000000 0.000002 -0.000007 0.000003 -0.000019 -0.000000 -0.000001 0.000001 2.625420 -0.000015 11.175216 -20.826674 67.267220 0.073966 0.000015 -0.000004 10.813627 45.564253 65.995794 63.817073 -0.000006 0.000008 28.724827 -15.187465 1.267942 101.919632 0.644394 0.328873 25.716160 35.519774 -53.476543 -0.356265 2.867294 -2.944275 3.959557 -33.134221 11.752115 60.762934 -0.000029 0.000024 3.350413 0.889515 -0.862338 -1.775886 -0.000017 0.000027 3.756542 0.614862 -0.601772 -1.232222 0.000003 -0.000001 3.100005 0.000000 -0.000000 0.000000 0.086720 -2.345238 10.030914 -15.001464 -28.022762 30.211375 -0.000040 -0.000008 4.061116 0.637264 0.027974 0.000360 -0.000008 -0.000029 3.248876 0.129673 -0.015653 0.001738 0.000005 0.000018 2.639725 -0.000002 -0.000001 0.000001 -0.104103 -0.006798 9.502930 -9.648730 -28.890399 20.211510 0.000011 0.000005 4.568731 0.552143 0.000766 -0.000364 -0.000030 0.000028 3.654975 0.082817 -0.000001 0.000130 -0.000022 0.000029 2.741282 -0.000003 0.000001 -0.000001 -0.086805 2.267463 8.921703 -0.027619 -26.996939 6.779408 0.000005 -0.000002 4.061086 -1.112203 0.000196 0.000092 0.000004 0.000010 3.654986 -0.163363 0.000002 -0.000040 -0.000002 0.000016 2.741251 -0.000001 -0.000002 0.000002 0.173424 4.467217 7.976967 9.954700 -20.953868 -4.950779 -0.000001 -0.000076 3.350457 -2.021767 -0.000019 -0.000196 -0.000013 -0.000063 2.842784 -0.113117 -0.000005 0.000482 -0.000036 -0.000026 2.639718 0.000003 -0.000000 -0.000003 -0.000011 0.000002 0.000001 0.000001 0.000001 0.000002 -0.000013 -0.000007 0.000010 0.000001 0.000001 -0.000000 -11.289975 -0.000107 -0.000004 -12.111231 7.072793 -14.395857 0.000000 -0.000059 -38.200367 -0.617927 0.597865 43.953777 -0.000016 -0.000029 -39.900864 -6.987094 -1.073808 3.527560 0.000009 -15.261707 0.000004 2.315252 -0.217786 -13.491825 0.000007 -7.370726 -0.000000 -0.000000 0.000000 0.000001 0.000002 -0.000005 0.000000 0.000001 -0.000001 0.000000 -0.000001 0.000008 -0.000002 -0.000001 -0.000001 -0.000001 11.315670 -0.000028 -0.000004 2.195429 -7.656586 -12.552474 0.000001 -0.000049 -38.200340 0.243796 -0.240093 44.571274 0.000040 -0.000014 -39.900860 10.114943 4.422724 1.962050 0.000016 -15.261580 0.000008 -1.746637 0.073990 -15.888360 -0.000007 -7.540044 0.000001 0.000001 -0.000000 -0.000000 -0.000002 -0.000006 0.000001 0.000001 -0.000000 0.000002 -0.000001 -0.000003 0.000006 0.000001 -0.000000 0.000003 
